<?xml version="1.0" standalone="no"?>
<!DOCTYPE svg PUBLIC "-//W3C//DTD SVG 20010904//EN"
 "http://www.w3.org/TR/2001/REC-SVG-20010904/DTD/svg10.dtd">
<svg version="1.0" xmlns="http://www.w3.org/2000/svg"
 width="8333.000000pt" height="1637.000000pt" viewBox="0 0 8333.000000 1637.000000"
 preserveAspectRatio="xMidYMid meet">
<metadata>
Created by potrace 1.16, written by Peter Selinger 2001-2019
</metadata>
<g transform="translate(0.000000,1637.000000) scale(0.100000,-0.100000)"
fill="#000000" stroke="none">
<path d="M40220 16344 c-25 -7 -53 -14 -63 -14 -34 0 -177 -61 -236 -101 -144
-96 -267 -244 -332 -399 -84 -200 -77 -465 19 -695 31 -74 112 -226 179 -335
58 -94 193 -381 200 -424 3 -23 1 -47 -7 -62 -12 -21 -20 -24 -74 -24 -50 0
-84 9 -186 50 -68 28 -169 62 -225 76 -55 14 -137 36 -181 50 -45 13 -174 43
-285 65 -112 22 -233 48 -269 59 -127 36 -221 49 -625 85 -320 28 -512 46
-623 61 -153 19 -532 19 -710 -1 -75 -9 -200 -24 -277 -35 -77 -10 -232 -21
-345 -25 -380 -10 -551 -29 -785 -87 -68 -16 -201 -38 -305 -49 -102 -11 -297
-42 -435 -69 -137 -26 -299 -56 -359 -65 -60 -9 -162 -32 -225 -51 -64 -19
-154 -44 -201 -55 -75 -19 -222 -60 -515 -142 -49 -14 -139 -45 -200 -69 -182
-74 -272 -108 -435 -163 -85 -29 -191 -70 -235 -92 -44 -22 -111 -52 -150 -66
-368 -133 -953 -425 -1295 -645 -219 -141 -467 -356 -616 -535 -140 -166 -210
-285 -285 -477 -89 -228 -79 -458 30 -685 92 -193 228 -338 386 -415 154 -75
226 -94 355 -94 81 0 136 5 185 18 94 25 236 87 305 133 68 45 263 243 335
338 31 43 87 99 141 141 129 101 450 296 542 328 24 9 81 36 129 62 47 26 131
66 187 89 55 24 194 84 308 133 114 50 235 98 268 107 34 9 87 27 118 41 31
14 152 57 267 96 441 149 568 186 769 224 99 19 233 50 296 69 74 22 183 44
301 60 101 14 254 41 339 61 192 44 233 49 500 70 118 8 339 32 490 51 553 70
1257 65 1621 -12 41 -8 166 -27 279 -40 301 -37 756 -157 940 -248 59 -29 65
-35 68 -65 6 -62 -46 -94 -343 -208 -172 -66 -436 -203 -563 -293 -160 -112
-315 -269 -381 -386 -68 -118 -121 -286 -128 -399 -8 -133 27 -297 92 -426 65
-130 209 -269 354 -344 340 -174 545 -152 1076 115 167 83 312 148 435 193
102 37 244 91 315 118 72 28 166 63 210 78 89 30 224 86 390 162 61 28 155 67
210 88 55 20 205 83 334 139 128 56 279 115 335 130 122 35 293 94 338 117
149 77 311 227 401 372 65 104 99 196 121 327 50 293 47 545 -10 884 -20 120
-34 168 -83 290 -66 164 -170 382 -275 576 -38 72 -102 193 -141 270 -39 77
-98 190 -131 250 -33 61 -91 166 -128 235 -38 69 -72 130 -76 135 -4 6 -22 46
-40 90 -74 183 -276 572 -371 715 -115 173 -199 266 -321 356 -152 112 -312
171 -520 194 -118 12 -122 12 -178 -6z"/>
<path d="M4220 10175 c-36 -8 -101 -14 -145 -15 -79 0 -202 -18 -286 -40 -23
-7 -97 -20 -164 -30 -155 -24 -485 -110 -573 -149 -148 -65 -241 -104 -330
-137 -51 -19 -114 -45 -140 -58 -26 -13 -58 -27 -72 -31 -42 -12 -238 -144
-602 -405 -206 -147 -467 -416 -712 -731 -44 -57 -178 -260 -287 -434 -35 -57
-139 -273 -139 -289 0 -5 -25 -63 -56 -130 -30 -66 -73 -159 -95 -206 -21 -47
-45 -114 -53 -150 -9 -36 -27 -99 -41 -140 -66 -193 -202 -709 -224 -852 -15
-92 -59 -446 -81 -653 -17 -155 -20 -252 -20 -705 -1 -536 3 -614 46 -950 35
-277 45 -341 80 -475 19 -77 42 -184 49 -237 10 -67 27 -125 54 -190 22 -51
49 -129 60 -173 11 -44 34 -120 51 -168 16 -49 30 -93 30 -99 0 -6 17 -45 39
-87 21 -42 44 -94 51 -116 7 -22 27 -69 45 -105 18 -36 63 -126 100 -200 86
-173 114 -219 252 -425 213 -317 399 -534 601 -702 58 -48 142 -122 186 -164
130 -124 431 -315 696 -442 337 -162 644 -276 817 -302 55 -8 151 -31 214 -51
95 -30 145 -39 304 -54 190 -18 260 -34 271 -65 5 -13 58 -15 445 -15 264 0
439 4 439 9 0 38 64 54 290 75 104 10 185 23 245 41 50 15 124 36 165 47 41
11 125 35 185 53 61 19 139 41 175 50 36 9 84 27 107 41 23 13 76 37 119 54
42 16 95 41 116 55 21 14 62 35 91 46 106 42 414 232 585 361 211 160 447 392
617 608 37 47 103 131 148 187 45 57 98 131 117 165 19 35 49 81 65 104 39 53
304 585 321 644 3 14 17 46 30 72 34 67 142 393 170 513 13 55 39 156 59 225
20 73 35 148 35 181 0 49 -3 58 -33 87 l-33 32 -927 0 c-1006 0 -964 2 -1000
-54 -9 -13 -32 -82 -52 -153 -20 -70 -50 -171 -66 -224 -49 -157 -213 -464
-342 -644 -64 -89 -320 -343 -391 -389 -29 -19 -57 -39 -60 -45 -11 -16 -191
-120 -301 -172 -82 -39 -139 -57 -320 -98 -283 -64 -381 -75 -609 -67 -335 11
-497 31 -706 87 -76 21 -384 172 -458 226 -124 90 -168 127 -275 232 -123 121
-242 273 -365 466 -67 106 -120 218 -157 335 -10 30 -31 77 -47 104 -16 27
-37 85 -47 130 -10 44 -32 126 -49 181 -17 55 -38 141 -47 190 -9 50 -25 122
-35 160 -39 148 -68 358 -75 535 -3 96 -13 237 -22 313 -17 155 -14 586 6 777
6 58 17 211 25 340 14 211 18 245 46 330 17 52 39 148 51 213 28 164 91 410
127 493 17 38 58 129 91 203 34 74 66 150 72 170 6 20 41 80 77 133 299 437
303 441 522 605 136 101 380 230 560 296 109 40 117 42 265 62 61 8 160 24
220 35 67 12 177 23 280 26 l170 6 239 -52 c258 -56 440 -114 516 -165 26 -17
96 -58 156 -90 230 -122 455 -331 651 -603 79 -108 198 -348 254 -507 22 -66
58 -157 79 -202 l38 -81 48 -9 c27 -4 454 -8 949 -8 879 0 901 0 933 20 23 14
36 32 44 60 16 60 -12 281 -57 431 -19 65 -51 179 -71 253 -57 213 -89 302
-160 444 -37 72 -107 211 -155 307 -128 256 -262 449 -472 679 -310 339 -631
578 -1082 806 -99 50 -211 103 -250 118 -38 14 -134 51 -211 82 -78 30 -149
55 -157 55 -8 0 -78 18 -155 40 -77 22 -209 51 -293 65 -85 13 -198 33 -251
45 -150 31 -323 43 -713 45 -274 3 -376 0 -425 -10z"/>
<path d="M12148 10185 c-3 -3 -75 -10 -160 -15 -84 -4 -173 -13 -198 -18 -79
-18 -362 -70 -441 -81 -77 -10 -212 -48 -379 -106 -337 -117 -524 -201 -680
-305 -30 -20 -89 -59 -130 -86 -244 -161 -503 -418 -667 -664 -113 -170 -251
-437 -268 -520 -4 -19 -23 -70 -41 -114 -22 -49 -40 -115 -50 -175 -8 -53 -26
-148 -40 -211 -82 -381 -85 -883 -8 -1225 19 -82 40 -186 48 -230 7 -45 27
-108 43 -140 17 -33 36 -78 43 -100 7 -22 39 -90 71 -152 142 -270 335 -502
575 -690 168 -131 235 -178 297 -209 29 -15 72 -41 97 -59 92 -68 571 -286
735 -335 22 -7 75 -27 117 -46 43 -18 104 -40 137 -49 32 -8 99 -30 148 -49
48 -19 126 -42 173 -50 47 -9 108 -23 135 -30 28 -8 88 -22 135 -30 47 -9 184
-40 305 -70 365 -90 638 -155 680 -161 22 -4 87 -20 145 -36 58 -15 150 -35
205 -44 161 -25 614 -168 832 -263 116 -51 288 -154 375 -226 251 -208 339
-495 279 -911 -25 -171 -29 -185 -83 -315 -70 -165 -227 -355 -388 -469 -111
-79 -275 -156 -450 -211 -209 -66 -214 -67 -385 -85 -82 -9 -188 -20 -235 -25
-162 -18 -439 -12 -665 15 -116 13 -234 27 -262 30 -63 8 -362 107 -488 163
-349 155 -638 423 -794 735 -57 114 -131 366 -132 452 0 67 -18 114 -52 139
-28 21 -31 21 -920 21 -980 0 -936 3 -966 -60 -25 -53 12 -526 54 -680 13 -49
31 -126 40 -170 9 -44 30 -111 46 -148 17 -37 41 -103 55 -145 50 -153 247
-483 425 -712 255 -328 603 -603 1040 -822 260 -130 660 -275 839 -304 52 -8
167 -32 255 -53 194 -47 207 -49 419 -61 192 -11 232 -20 270 -55 l27 -25 532
0 c516 0 533 1 544 19 18 29 68 40 253 56 252 23 325 35 445 71 61 18 151 38
200 45 102 13 356 89 520 156 210 85 483 222 605 303 47 31 119 79 160 107
173 115 376 308 513 486 142 185 326 520 399 727 64 182 158 623 158 740 0 36
5 122 12 192 9 99 9 170 0 315 -16 239 -32 340 -94 592 -59 242 -109 402 -142
451 -12 19 -32 56 -44 83 -11 26 -71 118 -133 204 -150 211 -374 434 -498 498
-25 13 -57 35 -71 50 -14 15 -79 54 -144 87 -66 33 -136 70 -156 83 -76 48
-269 144 -329 164 -35 11 -86 34 -114 50 -29 16 -72 35 -97 42 -25 7 -81 27
-125 45 -44 18 -116 42 -161 53 -44 11 -105 32 -136 46 -30 14 -106 38 -169
54 -63 16 -139 39 -171 49 -31 11 -105 30 -164 42 -59 11 -123 28 -143 36 -36
16 -127 41 -564 153 -131 33 -242 63 -246 65 -4 3 -68 16 -142 30 -241 45
-488 105 -558 136 -38 16 -91 34 -118 40 -26 5 -80 16 -118 24 -131 27 -452
165 -612 264 -227 140 -260 170 -375 338 -81 118 -85 127 -119 311 -27 144
-30 182 -25 268 13 215 92 393 258 578 119 132 374 282 531 311 42 9 128 31
189 51 93 30 135 38 243 45 71 5 189 14 260 21 159 14 493 6 657 -16 139 -18
446 -107 588 -170 261 -115 469 -293 600 -514 59 -99 126 -277 151 -400 41
-205 84 -311 137 -334 20 -9 230 -12 867 -12 897 0 927 1 960 48 30 43 11 265
-40 467 -8 30 -21 102 -30 159 -25 170 -130 468 -246 701 -213 427 -606 874
-986 1123 -194 126 -218 140 -342 202 -502 249 -1049 382 -1786 435 -186 13
-738 24 -747 15z"/>
<path d="M21085 10174 c-66 -7 -187 -20 -270 -28 -82 -8 -169 -22 -191 -30
-23 -8 -106 -22 -185 -31 -79 -10 -178 -28 -219 -40 -41 -13 -122 -35 -179
-50 -57 -14 -134 -39 -170 -54 -36 -16 -95 -37 -130 -46 -36 -9 -90 -29 -121
-45 -31 -15 -82 -36 -113 -45 -32 -9 -104 -40 -161 -68 -182 -92 -642 -395
-836 -550 -137 -110 -397 -367 -492 -487 -42 -52 -101 -124 -132 -160 -31 -35
-87 -114 -123 -175 -37 -60 -120 -195 -185 -299 -65 -103 -132 -218 -148 -255
-17 -36 -48 -100 -69 -141 -70 -135 -148 -343 -231 -610 -16 -52 -43 -138 -60
-190 -16 -52 -36 -135 -45 -185 -9 -49 -31 -151 -50 -225 -42 -171 -42 -171
-60 -315 -7 -66 -25 -210 -39 -320 -25 -190 -26 -223 -26 -689 l0 -488 35
-242 c19 -132 39 -288 44 -346 7 -68 24 -154 51 -245 22 -77 40 -147 40 -157
0 -9 16 -70 35 -135 20 -65 46 -166 60 -225 13 -59 32 -122 41 -140 10 -18 34
-80 55 -138 188 -534 545 -1147 919 -1580 237 -274 532 -539 795 -713 55 -36
126 -85 158 -107 31 -23 103 -67 160 -97 56 -30 131 -72 167 -94 36 -21 90
-47 121 -57 30 -11 79 -33 110 -50 30 -17 83 -39 119 -48 35 -9 102 -31 149
-49 48 -18 109 -37 137 -43 28 -6 99 -27 157 -46 78 -27 135 -38 221 -46 234
-20 311 -37 321 -71 6 -18 21 -19 428 -19 409 0 423 1 434 20 17 26 98 47 213
55 144 10 262 31 395 70 66 19 149 40 185 45 142 23 412 127 665 257 335 172
527 321 776 603 63 72 67 74 95 65 21 -8 30 -19 35 -45 10 -51 31 -314 38
-475 6 -145 14 -175 52 -196 42 -22 312 -30 916 -27 574 3 621 4 660 21 38 17
43 23 50 65 4 26 8 1140 8 2477 0 2018 -2 2439 -14 2483 -24 97 189 87 -1951
87 -1860 0 -1886 0 -1940 -20 -91 -33 -85 24 -85 -806 0 -713 0 -727 20 -749
53 -58 -6 -55 1034 -57 923 -1 955 -2 980 -21 42 -31 52 -73 45 -197 -3 -60
-12 -145 -20 -188 -39 -204 -194 -549 -336 -745 -111 -154 -206 -269 -259
-312 -30 -24 -79 -67 -109 -95 -260 -240 -661 -444 -1005 -510 -77 -14 -174
-34 -215 -43 -54 -11 -142 -17 -308 -19 l-234 -4 -203 40 c-111 23 -213 41
-226 41 -35 0 -249 75 -351 125 -249 118 -446 261 -663 479 -230 231 -382 440
-532 733 -111 216 -169 356 -199 483 -14 58 -38 143 -53 190 -16 47 -36 136
-45 198 -9 62 -30 165 -47 228 -44 172 -59 381 -58 854 0 483 20 771 67 976
17 73 38 173 47 223 8 50 24 119 35 153 10 35 30 108 44 164 111 441 333 824
696 1198 123 127 210 196 414 331 201 132 306 180 496 229 30 8 82 26 116 40
142 60 681 107 884 77 41 -6 134 -18 207 -26 302 -33 777 -233 1028 -433 158
-126 370 -352 474 -505 80 -118 153 -293 175 -422 19 -110 41 -153 92 -179 39
-21 49 -21 969 -21 869 0 932 1 962 18 52 28 56 44 43 178 -6 66 -18 143 -26
172 -8 28 -23 92 -35 141 -11 49 -38 137 -59 195 -22 58 -46 138 -55 176 -9
39 -33 104 -54 145 -21 41 -42 90 -46 108 -4 19 -26 61 -49 95 -23 34 -50 82
-59 107 -18 48 -209 325 -319 462 -319 402 -711 709 -1243 976 -176 88 -431
198 -493 213 -26 7 -81 27 -122 45 -41 18 -104 38 -140 44 -36 6 -125 27 -199
46 -74 19 -187 43 -251 54 -64 10 -144 26 -176 34 -96 24 -178 35 -379 51
-233 18 -713 18 -880 -1z"/>
<path d="M30509 10186 c-3 -3 -84 -10 -180 -16 -96 -5 -223 -19 -284 -30 -60
-11 -175 -31 -254 -45 -265 -46 -693 -166 -911 -257 -248 -103 -376 -172 -645
-346 -454 -294 -878 -720 -1151 -1157 -156 -249 -245 -411 -309 -565 -31 -74
-76 -178 -100 -230 -24 -52 -47 -111 -50 -130 -4 -19 -24 -89 -45 -155 -59
-186 -118 -401 -136 -500 -9 -49 -31 -146 -50 -215 -24 -92 -38 -172 -49 -300
-9 -96 -21 -195 -26 -220 -10 -44 -19 -134 -39 -390 -5 -69 -9 -360 -10 -647
0 -556 -2 -524 59 -1023 11 -85 24 -198 30 -251 6 -53 22 -136 37 -185 14 -49
32 -122 40 -162 25 -131 95 -385 144 -527 11 -33 30 -96 41 -140 11 -44 32
-102 46 -130 14 -27 40 -88 58 -135 38 -100 181 -381 227 -448 18 -26 69 -104
113 -173 173 -273 421 -564 610 -717 39 -31 108 -93 155 -137 152 -142 426
-311 750 -461 374 -173 583 -249 835 -303 55 -12 143 -33 195 -46 145 -38 180
-44 380 -59 197 -16 283 -35 303 -66 11 -19 27 -20 534 -20 l522 0 26 25 c30
27 18 25 340 60 154 16 257 33 312 49 45 13 119 32 165 40 46 9 138 32 205 51
67 19 153 42 192 50 38 8 109 32 158 54 48 21 99 42 113 46 69 19 452 204 537
260 33 22 96 60 140 85 95 54 231 156 380 284 143 123 242 221 369 366 231
264 368 466 469 691 30 68 63 138 72 154 138 254 181 360 253 631 16 61 47
160 68 220 52 144 88 344 152 824 11 85 27 202 35 260 9 58 15 128 15 155 1
28 7 95 15 150 17 117 20 849 4 1000 -5 50 -13 142 -18 205 -5 63 -14 140 -20
170 -6 30 -20 151 -31 270 -11 118 -29 256 -40 305 -11 50 -33 153 -50 230
-17 77 -44 185 -60 240 -17 55 -41 147 -55 205 -14 58 -36 141 -49 185 -14 44
-30 100 -36 125 -11 44 -28 82 -155 345 -34 72 -77 166 -96 210 -90 212 -240
465 -396 665 -154 198 -181 230 -287 343 -179 192 -428 401 -631 529 -44 28
-105 67 -135 87 -187 127 -357 207 -680 321 -74 26 -162 59 -195 74 -33 14
-68 26 -77 26 -9 0 -86 18 -170 39 -84 22 -227 51 -318 66 -91 15 -208 35
-260 46 -52 11 -156 24 -230 30 -151 12 -862 24 -871 15z m701 -1807 c63 -6
164 -24 225 -40 60 -16 155 -41 210 -55 54 -14 122 -37 149 -51 28 -14 80 -36
116 -50 69 -26 225 -112 300 -165 222 -159 339 -268 483 -448 174 -217 352
-543 438 -800 49 -148 145 -561 159 -682 10 -90 31 -235 51 -348 23 -131 39
-421 39 -736 0 -183 -2 -349 -5 -370 -3 -22 -10 -91 -15 -154 -5 -63 -18 -164
-29 -225 -11 -60 -29 -174 -41 -252 -11 -78 -29 -170 -39 -205 -11 -35 -35
-126 -54 -204 -20 -77 -52 -185 -72 -240 -77 -204 -243 -501 -378 -674 -146
-187 -359 -387 -538 -505 -136 -91 -311 -185 -450 -243 -111 -46 -366 -108
-499 -122 -63 -6 -170 -20 -238 -31 -147 -23 -250 -24 -375 -4 -50 8 -173 21
-272 29 -147 12 -197 21 -275 46 -52 17 -135 39 -183 50 -51 11 -121 36 -165
59 -42 21 -126 63 -187 92 -132 64 -314 187 -462 313 -189 162 -368 404 -504
681 -130 267 -194 486 -259 888 -17 103 -37 219 -45 258 -8 39 -15 94 -15 122
0 29 -7 102 -15 162 -26 195 -12 1128 20 1275 9 41 32 174 51 295 86 544 159
768 387 1180 201 364 533 706 858 884 195 106 584 232 784 252 258 27 661 35
845 18z"/>
<path d="M58377 9986 c-27 -7 -55 -20 -64 -28 -8 -9 -19 -49 -24 -94 -6 -48
-8 -1898 -7 -4739 3 -4367 4 -4662 20 -4691 33 -61 3 -59 923 -59 915 0 929 1
963 53 16 24 17 106 17 1082 1 962 2 1058 18 1093 10 22 89 112 196 220 98
100 218 227 266 282 120 139 307 314 342 321 33 6 88 -27 108 -66 21 -39 97
-202 165 -350 94 -206 176 -371 204 -409 14 -18 43 -77 65 -130 43 -101 72
-160 190 -385 40 -76 99 -197 133 -270 33 -72 100 -214 150 -316 49 -102 113
-232 140 -290 28 -58 66 -130 84 -160 19 -30 61 -122 95 -205 34 -82 69 -161
79 -175 9 -14 38 -68 63 -120 51 -104 81 -144 124 -162 21 -10 255 -13 951
-16 914 -3 1044 0 1079 30 19 16 16 79 -7 118 -11 19 -31 58 -44 86 -14 28
-43 80 -66 115 -23 35 -124 228 -224 429 -239 479 -499 980 -599 1155 -79 138
-130 240 -221 445 -56 125 -56 124 -137 265 -36 61 -121 223 -189 360 -68 138
-136 266 -151 285 -15 19 -59 104 -99 189 -39 85 -80 166 -90 181 -10 15 -29
51 -40 81 -25 62 -90 184 -132 246 -50 74 -178 353 -193 422 -11 52 26 114
137 230 57 60 168 181 248 271 227 255 328 365 424 464 50 50 124 135 167 188
42 54 102 119 133 145 30 26 78 78 105 114 27 36 86 99 131 139 45 41 100 101
122 134 23 33 73 94 113 135 39 42 102 112 139 156 38 44 96 104 130 134 33
30 91 93 128 140 36 47 100 117 142 154 127 114 154 186 83 224 -30 17 -97 18
-1082 18 l-1050 0 -59 -29 c-48 -23 -70 -44 -125 -115 -36 -47 -96 -117 -132
-156 -36 -38 -105 -117 -154 -175 -49 -58 -128 -148 -176 -200 -82 -88 -113
-125 -274 -322 -33 -40 -118 -136 -190 -213 -71 -78 -200 -226 -285 -330 -85
-104 -200 -237 -255 -296 -116 -122 -204 -225 -372 -434 -190 -235 -263 -286
-292 -204 -8 23 -11 720 -11 2459 0 1605 -3 2445 -10 2481 -12 64 -25 78 -82
91 -26 7 -363 12 -868 14 -667 3 -834 1 -873 -10z"/>
<path d="M39405 9871 c-46 -16 -74 -35 -86 -60 -20 -37 -26 -9298 -7 -9357 10
-30 23 -44 53 -59 39 -20 60 -20 935 -20 822 0 900 1 951 17 31 10 63 25 70
34 12 14 15 282 19 1658 6 1814 0 1674 70 1698 27 10 270 12 1105 9 1094 -3
1348 2 1515 35 281 55 465 96 516 114 33 11 94 30 137 41 79 20 237 94 332
154 28 18 113 65 190 104 199 102 361 229 563 441 86 91 179 195 207 230 132
173 218 307 254 397 11 27 33 72 50 98 17 26 38 71 47 99 9 28 29 80 44 116
34 78 126 430 134 515 8 69 28 225 52 401 20 144 14 418 -11 549 -9 44 -20
141 -25 215 -6 74 -15 162 -21 195 -21 120 -102 377 -177 565 -48 119 -209
439 -255 506 -244 352 -499 607 -807 806 -305 198 -788 404 -1001 428 -52 6
-130 17 -174 26 -265 50 -140 48 -2480 50 -1199 1 -2189 -1 -2200 -5z m4117
-1697 c181 -17 200 -20 378 -70 79 -22 171 -57 248 -95 110 -54 134 -71 222
-155 143 -138 277 -331 334 -484 41 -112 106 -440 106 -540 0 -82 -24 -217
-70 -385 -47 -175 -121 -331 -230 -484 -85 -121 -160 -192 -277 -264 -151 -93
-306 -149 -528 -191 -104 -20 -210 -41 -235 -46 -25 -5 -488 -10 -1030 -11
-1115 -2 -1042 -7 -1075 74 -16 39 -18 140 -18 1307 -1 1020 1 1272 12 1297
26 64 -15 62 1043 62 792 1 986 -2 1120 -15z"/>
<path d="M49390 7597 c-3 -3 -69 -13 -147 -21 -77 -9 -147 -18 -155 -21 -7 -2
-86 -14 -176 -25 -125 -16 -186 -29 -260 -56 -53 -19 -137 -43 -186 -54 -231
-51 -553 -215 -841 -429 -261 -193 -438 -423 -573 -741 -90 -211 -140 -375
-167 -543 -15 -89 -35 -206 -46 -259 -32 -162 -21 -280 28 -306 53 -29 190
-33 908 -30 715 3 731 3 765 24 43 25 56 50 74 148 26 135 122 328 254 511 73
102 278 236 424 279 145 42 250 51 573 51 326 -1 425 -11 572 -60 308 -104
521 -313 553 -543 11 -85 1 -239 -21 -327 -23 -88 -123 -215 -221 -283 -108
-74 -270 -137 -403 -158 -50 -7 -134 -27 -188 -43 -54 -17 -121 -33 -150 -36
-28 -4 -160 -24 -292 -45 -132 -22 -321 -51 -420 -65 -99 -15 -232 -37 -295
-50 -63 -13 -169 -30 -235 -39 -66 -9 -167 -27 -225 -41 -58 -15 -150 -35
-204 -46 -89 -18 -179 -47 -421 -137 -162 -59 -427 -208 -590 -330 -86 -65
-288 -265 -346 -344 -111 -149 -243 -418 -274 -558 -9 -41 -25 -106 -36 -144
-29 -96 -57 -270 -64 -390 -3 -55 -11 -157 -16 -226 -19 -212 15 -499 84 -725
14 -44 30 -105 37 -135 24 -109 117 -285 247 -468 53 -75 284 -297 373 -358
104 -71 290 -172 369 -199 36 -12 98 -36 138 -53 95 -41 435 -109 618 -125
180 -15 824 -15 975 0 63 7 158 24 210 38 52 14 141 32 197 40 104 15 171 34
233 65 19 9 53 23 75 30 86 27 412 190 489 244 28 20 78 54 111 76 33 22 100
69 149 105 97 72 130 85 152 63 9 -9 25 -75 40 -159 17 -104 33 -161 54 -204
54 -109 49 -106 193 -116 190 -14 1485 -7 1519 8 15 7 35 24 45 40 17 26 18
128 21 2243 3 2544 0 2704 -68 3029 -11 53 -31 151 -44 217 -14 69 -36 144
-50 173 -15 28 -38 84 -53 124 -14 39 -36 88 -48 108 -13 19 -39 69 -58 110
-119 248 -372 518 -662 704 -183 118 -481 256 -627 290 -35 8 -110 30 -167 50
-57 19 -143 39 -190 45 -47 6 -129 18 -181 27 -273 44 -286 44 -835 50 -297 2
-542 2 -545 0z m1617 -3944 c16 -25 18 -58 18 -358 0 -481 -26 -633 -147 -867
-69 -132 -184 -282 -314 -409 -118 -113 -146 -135 -300 -226 -161 -96 -308
-155 -499 -203 l-170 -43 -230 1 -230 0 -135 42 c-231 71 -327 139 -413 293
-43 76 -51 101 -74 224 -30 164 -28 296 7 458 27 124 105 276 184 355 73 74
253 189 376 239 139 58 376 135 525 171 66 15 162 40 213 54 51 15 145 33 208
41 64 8 163 28 222 44 59 16 150 37 202 47 52 9 131 31 175 49 44 18 105 40
135 49 30 9 75 27 100 41 27 14 62 24 87 25 35 0 46 -5 60 -27z"/>
<path d="M56960 7589 c-194 -28 -474 -91 -528 -118 -31 -15 -75 -34 -97 -41
-94 -29 -324 -170 -468 -287 -45 -36 -152 -138 -237 -225 -148 -152 -157 -159
-190 -156 -54 5 -60 38 -53 313 6 255 0 292 -50 329 -27 20 -35 20 -810 21
-865 0 -856 1 -887 -60 -13 -27 -15 -431 -15 -3460 0 -3754 -5 -3478 59 -3513
28 -16 97 -17 786 -20 881 -3 990 3 1027 60 4 7 10 861 13 1898 5 1427 9 1908
18 1980 34 256 52 336 105 481 78 211 148 332 256 440 20 20 55 56 77 81 60
66 225 179 330 227 50 22 158 60 240 83 82 22 172 48 199 57 41 12 133 16 491
21 495 6 473 2 494 79 14 50 13 1585 -1 1671 -24 147 -17 145 -394 147 -165 1
-329 -3 -365 -8z"/>
<path d="M67399 7596 c-2 -3 -45 -10 -94 -16 -50 -6 -133 -20 -185 -30 -52
-11 -139 -24 -193 -30 -54 -6 -122 -19 -150 -29 -95 -35 -260 -90 -394 -130
-113 -34 -332 -134 -378 -171 -5 -5 -71 -41 -145 -80 -74 -40 -166 -95 -205
-124 -38 -29 -106 -78 -149 -110 -136 -101 -368 -331 -497 -493 -116 -145
-302 -443 -412 -658 -70 -136 -117 -241 -117 -260 0 -13 -20 -81 -44 -152 -92
-269 -125 -389 -146 -528 -11 -77 -27 -183 -35 -235 -37 -239 -38 -260 -32
-675 7 -438 14 -540 51 -760 14 -77 27 -167 31 -199 7 -62 54 -225 130 -451
24 -71 48 -151 54 -177 22 -94 253 -538 354 -678 162 -226 240 -320 376 -452
222 -218 373 -337 551 -438 52 -29 119 -68 149 -87 115 -74 280 -143 761 -318
36 -13 103 -29 150 -35 47 -6 130 -20 185 -31 189 -38 300 -48 640 -60 441
-16 676 -4 945 46 317 60 343 66 429 102 47 19 110 39 140 44 31 6 83 25 116
43 33 19 85 41 115 51 154 50 544 278 755 442 315 245 605 585 776 908 28 55
67 126 86 157 19 31 41 81 49 110 9 29 29 78 44 108 15 30 39 87 53 125 14 39
37 95 51 125 14 30 30 80 36 110 6 30 22 89 36 130 30 93 79 334 93 460 20
178 30 255 42 330 13 89 6 782 -11 925 -10 89 -23 177 -60 405 -21 125 -93
387 -143 515 -17 44 -41 114 -53 155 -27 92 -106 281 -134 320 -11 15 -33 58
-50 94 -58 130 -213 369 -295 456 -33 36 -91 101 -127 145 -151 184 -499 482
-663 569 -27 14 -84 46 -125 71 -153 93 -407 208 -585 267 -33 11 -94 31 -135
44 -41 14 -104 34 -140 44 -103 28 -476 89 -611 100 -121 9 -881 14 -890 6z
m801 -1610 c118 -25 323 -98 435 -153 193 -97 320 -195 442 -338 82 -97 111
-142 178 -275 106 -211 160 -367 189 -545 8 -49 26 -144 40 -210 14 -66 26
-151 26 -190 0 -39 7 -125 16 -190 29 -214 8 -526 -56 -850 -16 -82 -36 -184
-44 -225 -30 -160 -166 -481 -267 -630 -75 -113 -248 -280 -369 -360 -183
-120 -393 -199 -580 -220 -58 -6 -152 -18 -210 -26 -142 -19 -233 -18 -348 5
-54 11 -144 24 -202 31 -124 14 -183 29 -307 80 -164 67 -360 198 -469 312
-99 103 -202 255 -281 413 -49 97 -60 127 -102 285 -11 41 -31 116 -45 165
-18 61 -31 146 -41 265 -8 96 -20 195 -26 220 -17 64 -17 595 -1 745 37 347
93 591 179 781 106 236 197 369 364 529 161 155 343 260 549 316 63 18 138 38
165 46 89 24 175 30 440 32 187 0 278 -3 325 -13z"/>
<path d="M82558 7579 c-54 -4 -137 -15 -185 -23 -49 -9 -131 -23 -183 -32 -67
-11 -113 -26 -155 -49 -33 -18 -87 -41 -120 -50 -64 -19 -229 -103 -273 -140
-15 -12 -45 -33 -68 -47 -71 -45 -205 -166 -359 -325 -143 -147 -152 -154
-185 -151 -54 5 -60 38 -53 313 6 255 0 292 -50 329 -28 20 -34 21 -825 21
-875 0 -840 2 -872 -60 -13 -27 -15 -423 -15 -3470 0 -2784 2 -3444 13 -3463
7 -12 25 -30 39 -39 25 -17 84 -18 857 -18 762 0 836 1 887 17 31 10 63 25 70
34 12 14 15 320 19 1903 5 1442 9 1908 19 1981 32 239 46 314 83 435 91 303
232 496 495 683 128 90 240 140 470 209 l188 57 488 4 487 3 0 938 0 938 -137
6 c-174 9 -510 7 -635 -4z"/>
<path d="M72175 7415 c-66 -18 -82 -40 -90 -128 -3 -39 -4 -1127 -2 -2417 4
-2459 4 -2456 47 -2707 17 -100 88 -371 111 -421 12 -26 32 -78 45 -116 13
-38 36 -90 51 -115 15 -25 46 -84 69 -131 84 -173 336 -507 458 -603 33 -27
93 -77 131 -111 91 -81 119 -100 229 -156 50 -26 129 -67 176 -92 139 -75 267
-125 419 -163 233 -58 318 -67 671 -68 354 -2 486 9 655 52 61 16 141 36 179
45 38 9 94 28 125 42 31 14 87 37 126 50 38 13 87 36 107 49 21 14 63 36 93
50 160 70 473 334 728 613 41 43 54 52 83 52 28 0 36 -5 45 -27 7 -18 12 -145
12 -338 2 -271 4 -314 19 -341 33 -61 7 -59 878 -59 764 0 797 1 834 19 72 36
66 -276 66 3511 0 3717 4 3466 -51 3496 -43 22 -316 30 -1006 27 -658 -3 -711
-4 -749 -21 -29 -13 -44 -27 -50 -45 -4 -15 -11 -940 -15 -2057 -4 -1116 -11
-2082 -16 -2145 -11 -143 -70 -398 -124 -540 -23 -58 -46 -118 -52 -135 -19
-50 -115 -184 -210 -293 -163 -186 -395 -331 -588 -366 -46 -8 -167 -27 -268
-42 -184 -27 -185 -27 -285 -10 -56 10 -152 24 -214 32 -125 16 -209 44 -310
103 -281 164 -444 409 -497 746 -36 228 -37 269 -35 2487 1 1970 0 2190 -14
2217 -9 17 -26 36 -38 42 -36 19 -362 28 -1048 28 -505 0 -656 -3 -695 -14z"/>
</g>
</svg>
